<?xml version="1.0" encoding="UTF-8"?><svg xmlns="http://www.w3.org/2000/svg" viewBox="0 0 200 200"><defs><style>.d{fill:#fff;}.e{fill:#42277f;}</style></defs><g id="a"/><g id="b"><g id="c"><rect class="e" width="200" height="200" rx="24" ry="24"/><path class="d" d="M65.24,17.97H19.63c-1.82,0-3.29,1.47-3.29,3.29v52.18c0,59.97,48.62,108.59,108.59,108.59h55.43c1.82,0,3.29-1.47,3.29-3.29v-42.36c0-65.4-53.02-118.42-118.42-118.42Zm59.06,131.63c-3.38-3.31-7.08-3.5-11.38-3.51-17.29-.04-29.88-9.08-40.43-21.9,16.1,9.51,32.9,16.25,52.16,13.62,2.63,4.88,4.9,9.08,8.09,15-3.62-1.3-6.73-1.54-8.44-3.21Zm14.47-.39c-3.81-5.63-7.63-11.27-11.54-17.04-39.89,4.17-69.17-24.45-72.16-45.84,21.98,20.7,46.56,34.88,76.64,36.02,2.72,8.89,5.34,17.5,7.97,26.1l-.91,.77Zm-1.29-31.53c-49.25-7.81-88.8-27.14-98.99-81.83,28.01,35.1,64.45,56.67,108.34,67.79-4.7,22.29-2.79,43.35,14.68,60.53-18.86-10.07-22.59-27.71-24.03-46.49Z"/></g></g></svg>